<svg xmlns="http://www.w3.org/2000/svg" viewBox="0 0 1280 320" width="1280" height="320" role="img" aria-label="Personal Genome Pipeline: Your genome, analyzed on your own hardware"><defs><clipPath id="r"><rect width="1280" height="320" rx="20"/></clipPath></defs><g clip-path="url(#r)"><rect width="1280" height="320" fill="#0b1220"/><g fill="none" stroke-linecap="round"><path d="M788 251.9L792 251.1L796 249.6L800 247.2L804 244.0L808 240.0L812 235.4L816 230.0L820 224.1L824 217.5L828 210.5L832 203.0L836 195.1L840 186.9L844 178.4L848 169.8L852 161.1L856 152.4L860 143.7L864 135.2L868 126.9L872 119.0L876 111.4L880 104.2L884 97.5L888 91.4L892 85.9L896 81.1L900 76.9L904 73.6L908 71.0L912 69.2L916 68.2M1052 252.0L1056 251.4L1060 250.0L1064 247.8L1068 244.8L1072 241.1L1076 236.6L1080 231.4L1084 225.6L1088 219.2L1092 212.3L1096 204.9L1100 197.1L1104 188.9L1108 180.5L1112 172.0L1116 163.3L1120 154.5L1124 145.9L1128 137.3L1132 129.0L1136 120.9L1140 113.2L1144 105.9L1148 99.1L1152 92.9L1156 87.2L1160 82.2L1164 77.9L1168 74.3L1172 71.5L1176 69.5L1180 68.4M720 160.0L724 151.3L728 142.7L732 134.2L736 125.9L740 118.0L744 110.4L748 103.3L752 96.7L756 90.7L760 85.3L764 80.5L768 76.5L772 73.2L776 70.7L780 69.0L784 68.1M920 252.0L924 251.3L928 249.8L932 247.5L936 244.4L940 240.6L944 236.0L948 230.7L952 224.9L956 218.4L960 211.4L964 203.9L968 196.1L972 187.9L976 179.5L980 170.9L984 162.2L988 153.5L992 144.8L996 136.3L1000 128.0L1004 119.9L1008 112.3L1012 105.0L1016 98.3L1020 92.1L1024 86.5L1028 81.6L1032 77.4L1036 73.9L1040 71.3L1044 69.4L1048 68.3M1184 252.0L1188 251.5L1192 250.2L1196 248.1L1200 245.3L1204 241.6L1208 237.2L1212 232.1L1216 226.4L1220 220.1L1224 213.2L1228 205.8L1232 198.1L1236 190.0L1240 181.6L1244 173.0L1248 164.4" stroke="#475569" stroke-width="10"/><g stroke-width="6"><path d="M730 181.6V160.0" stroke="#3b82f6"/><path d="M730 160.0V138.4" stroke="#f59e0b"/><path d="M750 220.1V160.0" stroke="#22c55e"/><path d="M750 160.0V99.9" stroke="#ef4444"/><path d="M770 245.3V160.0" stroke="#f59e0b"/><path d="M770 160.0V74.7" stroke="#3b82f6"/><path d="M790 251.6V160.0" stroke="#22c55e"/><path d="M790 160.0V68.4" stroke="#ef4444"/><path d="M810 237.8V160.0" stroke="#ef4444"/><path d="M810 160.0V82.2" stroke="#22c55e"/><path d="M830 206.8V160.0" stroke="#ef4444"/><path d="M830 160.0V113.2" stroke="#22c55e"/><path d="M850 165.5V160.0" stroke="#ef4444"/><path d="M850 160.0V154.5" stroke="#22c55e"/><path d="M870 122.9V160.0" stroke="#ef4444"/><path d="M870 160.0V197.1" stroke="#22c55e"/><path d="M890 88.6V160.0" stroke="#3b82f6"/><path d="M890 160.0V231.4" stroke="#f59e0b"/><path d="M910 70.0V160.0" stroke="#22c55e"/><path d="M910 160.0V250.0" stroke="#ef4444"/><path d="M930 71.3V160.0" stroke="#ef4444"/><path d="M930 160.0V248.7" stroke="#22c55e"/><path d="M950 92.1V160.0" stroke="#22c55e"/><path d="M950 160.0V227.9" stroke="#ef4444"/><path d="M970 128.0V160.0" stroke="#ef4444"/><path d="M970 160.0V192.0" stroke="#22c55e"/><path d="M990 170.9V160.0" stroke="#ef4444"/><path d="M990 160.0V149.1" stroke="#22c55e"/><path d="M1010 211.4V160.0" stroke="#22c55e"/><path d="M1010 160.0V108.6" stroke="#ef4444"/><path d="M1030 240.6V160.0" stroke="#ef4444"/><path d="M1030 160.0V79.4" stroke="#22c55e"/><path d="M1050 252.0V160.0" stroke="#f59e0b"/><path d="M1050 160.0V68.0" stroke="#3b82f6"/><path d="M1070 243.1V160.0" stroke="#3b82f6"/><path d="M1070 160.0V76.9" stroke="#f59e0b"/><path d="M1090 215.8V160.0" stroke="#22c55e"/><path d="M1090 160.0V104.2" stroke="#ef4444"/><path d="M1110 176.3V160.0" stroke="#f59e0b"/><path d="M1110 160.0V143.7" stroke="#3b82f6"/><path d="M1130 133.1V160.0" stroke="#22c55e"/><path d="M1130 160.0V186.9" stroke="#ef4444"/><path d="M1150 95.9V160.0" stroke="#22c55e"/><path d="M1150 160.0V224.1" stroke="#ef4444"/><path d="M1170 72.8V160.0" stroke="#22c55e"/><path d="M1170 160.0V247.2" stroke="#ef4444"/><path d="M1190 69.0V160.0" stroke="#22c55e"/><path d="M1190 160.0V251.0" stroke="#ef4444"/><path d="M1210 85.3V160.0" stroke="#ef4444"/><path d="M1210 160.0V234.7" stroke="#22c55e"/><path d="M1230 118.0V160.0" stroke="#3b82f6"/><path d="M1230 160.0V202.0" stroke="#f59e0b"/></g><path d="M720 160.0L724 168.7L728 177.3L732 185.8L736 194.1L740 202.0L744 209.6L748 216.7L752 223.3L756 229.3L760 234.7L764 239.5L768 243.5L772 246.8L776 249.3L780 251.0L784 251.9M920 68.0L924 68.7L928 70.2L932 72.5L936 75.6L940 79.4L944 84.0L948 89.3L952 95.1L956 101.6L960 108.6L964 116.1L968 123.9L972 132.1L976 140.5L980 149.1L984 157.8L988 166.5L992 175.2L996 183.7L1000 192.0L1004 200.1L1008 207.7L1012 215.0L1016 221.7L1020 227.9L1024 233.5L1028 238.4L1032 242.6L1036 246.1L1040 248.7L1044 250.6L1048 251.7M1184 68.0L1188 68.5L1192 69.8L1196 71.9L1200 74.7L1204 78.4L1208 82.8L1212 87.9L1216 93.6L1220 99.9L1224 106.8L1228 114.2L1232 121.9L1236 130.0L1240 138.4L1244 147.0L1248 155.6M788 68.1L792 68.9L796 70.4L800 72.8L804 76.0L808 80.0L812 84.6L816 90.0L820 95.9L824 102.5L828 109.5L832 117.0L836 124.9L840 133.1L844 141.6L848 150.2L852 158.9L856 167.6L860 176.3L864 184.8L868 193.1L872 201.0L876 208.6L880 215.8L884 222.5L888 228.6L892 234.1L896 238.9L900 243.1L904 246.4L908 249.0L912 250.8L916 251.8M1052 68.0L1056 68.6L1060 70.0L1064 72.2L1068 75.2L1072 78.9L1076 83.4L1080 88.6L1084 94.4L1088 100.8L1092 107.7L1096 115.1L1100 122.9L1104 131.1L1108 139.5L1112 148.0L1116 156.7L1120 165.5L1124 174.1L1128 182.7L1132 191.0L1136 199.1L1140 206.8L1144 214.1L1148 220.9L1152 227.1L1156 232.8L1160 237.8L1164 242.1L1168 245.7L1172 248.5L1176 250.5L1180 251.6" stroke="#f1f5f9" stroke-width="12"/></g><path transform="scale(0.5)" fill="#fff"  d="m146 236v-99h41q11 0 20 4 8 4 13 12 4 7 4 18 0 10-4 17-5 8-13 12-9 4-20 4h-27v-20h25q5 0 8-2 4-1 6-4 2-3 2-7 0-5-2-8-2-3-6-4-3-2-8-2h-15v79zm121 2q-11 0-19-5-9-5-13-13-5-8-5-19 0-11 5-19 4-8 13-13 8-5 18-5 8 0 14 3 7 3 12 7 4 5 7 12 3 6 3 14v7h-64v-14h53l-11 3q0-5-1-8-2-3-5-5-3-2-7-2-5 0-8 2-3 2-5 5-1 3-1 8v10q0 4 1 8 2 3 5 5 4 2 8 2 4 0 6-1 3-1 5-2 2-2 2-4h21q-1 7-6 12-5 5-12 9-8 3-16 3zm44-2v-70h22v12q2-6 6-9 4-3 12-3 1 0 3 0 1 0 3 0v19q-2 0-4-1-3 0-5 0-4 0-7 2-4 2-5 6-2 3-2 8v36zm85 2q-10 0-18-3-7-3-12-9-4-5-5-12h23q0 3 3 6 3 2 8 2 5 0 8-2 2-1 2-4 0-2-2-4-2-1-6-2l-13-2q-10-2-16-7-5-6-5-14 0-7 4-12 3-5 10-8 8-3 17-3 10 0 17 3 7 3 11 9 4 5 5 13h-21q0-4-3-6-3-3-8-3-4 0-7 2-2 2-2 4 0 2 2 4 2 1 5 2l14 2q11 2 16 7 5 5 5 13 0 7-4 12-4 6-11 9-8 3-17 3zm76 0q-11 0-19-5-9-4-13-13-5-8-5-19 0-11 5-19 4-9 13-13 8-5 19-5 11 0 19 5 8 4 13 13 5 8 5 19 0 11-5 19-5 9-13 13-8 5-19 5zm0-19q4 0 7-2 3-2 5-6 2-4 2-10 0-6-2-10-2-4-5-6-3-3-7-3-4 0-7 3-3 2-5 6-2 4-2 10 0 6 2 10 2 4 5 6 3 2 7 2zm69-21v38h-22v-70h22v19h-3q3-10 9-15 6-6 16-6 8 0 13 4 6 3 9 9 3 6 3 15v44h-23v-39q0-7-3-10-3-3-9-3-3 0-6 1-3 2-4 5-2 3-2 8zm81 39q-7 0-13-2-5-2-8-7-3-5-3-12 0-6 2-10 2-4 6-6 3-3 8-4 5-1 11-2 6 0 10-1 4 0 5-2 2-1 2-3 0-2-1-4-1-1-4-2-2-1-5-1-3 0-5 1-3 1-4 2-1 2-1 5h-22q1-8 5-13 4-6 11-9 7-3 17-3 8 0 14 2 5 2 10 5 4 3 6 7 2 5 2 11v47h-23v-10q-2 4-5 6-3 3-7 4-3 1-8 1zm7-15q3 0 7-1 3-2 4-4 2-3 2-6v-7q-1 1-2 1-1 1-3 1-1 0-3 1-2 0-4 0-3 1-6 2-2 1-3 2-2 2-2 4 0 3 2 4 1 2 3 2 2 1 5 1zm71-85v99h-23v-99zm85 101q-14 0-25-7-11-6-17-18-6-11-6-26 0-17 7-28 6-11 16-17 11-7 25-7 8 0 16 3 8 3 14 7 6 5 10 11 3 7 4 15h-24q-1-4-2-6-2-3-5-5-2-2-5-3-3-1-7-1-8 0-14 4-5 4-8 10-3 7-3 17 0 9 3 16 3 7 9 10 5 4 13 4 6 0 11-2 4-3 7-7 2-4 2-9l6 1h-25v-18h43v14q0 12-6 22-6 9-16 14-10 6-23 6zm89 0q-11 0-19-5-8-5-13-13-4-8-4-19 0-11 4-19 5-8 13-13 8-5 18-5 8 0 15 3 6 3 11 7 5 5 7 12 3 6 3 14v7h-64v-14h53l-10 3q0-5-2-8-2-3-5-5-3-2-7-2-5 0-8 2-3 2-4 5-2 3-2 8v10q0 4 2 8 1 3 5 5 3 2 8 2 3 0 6-1 2-1 4-2 2-2 3-4h20q-1 7-6 12-5 5-12 9-7 3-16 3zm67-40v38h-23v-70h23v19h-4q4-10 10-15 6-6 16-6 8 0 13 4 6 3 8 9 3 6 3 15v44h-23v-39q0-7-3-10-3-3-8-3-4 0-6 1-3 2-4 5-2 3-2 8zm93 40q-11 0-19-5-9-4-13-13-5-8-5-19 0-11 5-19 4-9 13-13 8-5 19-5 11 0 19 5 9 4 13 13 5 8 5 19 0 11-5 19-4 9-13 13-8 5-19 5zm0-19q4 0 7-2 3-2 5-6 2-4 2-10 0-6-2-10-2-4-5-6-3-3-7-3-4 0-7 3-3 2-5 6-2 4-2 10 0 6 2 10 2 4 5 6 3 2 7 2zm47 17v-70h22v16h-1q1-6 5-10 3-4 8-6 4-2 9-2 8 0 14 5 6 5 7 13h-2q2-6 5-10 3-4 8-6 5-2 11-2 7 0 12 3 6 3 9 9 3 6 3 13v47h-23v-42q0-5-3-8-3-3-8-3-3 0-5 1-3 2-4 4-1 3-1 7v41h-22v-42q0-5-3-8-3-3-8-3-3 0-5 1-3 2-4 5-1 2-1 6v41zm156 2q-11 0-19-5-8-5-13-13-5-8-5-19 0-11 5-19 5-8 13-13 8-5 18-5 8 0 14 3 7 3 12 7 4 5 7 12 3 6 3 14v7h-64v-14h53l-11 3q0-5-1-8-2-3-5-5-3-2-7-2-5 0-8 2-3 2-5 5-1 3-1 8v10q0 4 1 8 2 3 5 5 4 2 8 2 4 0 6-1 3-1 5-2 2-2 3-4h20q-1 7-6 12-5 5-12 9-8 3-16 3z"/><path transform="scale(0.5)" fill="#fff"  d="m146 380v-99h41q11 0 20 4 8 4 13 12 4 7 4 18 0 10-4 17-5 8-13 12-9 4-20 4h-27v-20h25q5 0 8-2 4-1 6-4 2-3 2-7 0-5-2-8-2-3-6-4-3-2-8-2h-15v79zm87 0v-70h23v70zm12-77q-6 0-9-3-4-3-4-9 0-5 4-8 3-3 9-3 5 0 9 3 3 3 3 8 0 6-3 9-4 3-9 3zm24 105v-98h22v9h1q2-4 5-6 3-2 7-3 3-2 8-2 9 0 16 5 6 5 10 13 4 8 4 19 0 11-4 19-3 8-10 13-7 5-16 5-5 0-9-2-3-1-6-4-3-3-5-6v38zm36-45q5 0 8-2 3-2 4-6 2-4 2-10 0-6-2-10-1-4-4-6-3-2-8-2-4 0-7 2-3 2-5 6-2 4-2 10 0 5 2 10 2 4 5 6 3 2 7 2zm80 19q-11 0-19-5-8-5-12-13-5-8-5-19 0-11 5-19 4-8 12-13 8-5 19-5 7 0 14 3 6 3 11 7 5 5 8 12 2 6 2 14v7h-64v-14h53l-10 3q0-5-2-8-1-3-4-5-4-2-8-2-4 0-7 2-3 2-5 5-2 3-2 8v10q0 4 2 8 2 3 5 5 3 2 8 2 3 0 6-1 3-1 4-2 2-2 3-4h21q-2 7-6 12-5 5-13 9-7 3-16 3zm68-101v99h-23v-99zm12 99v-70h23v70zm12-77q-6 0-9-3-4-3-4-9 0-5 4-8 3-3 9-3 5 0 9 3 3 3 3 8 0 6-3 9-4 3-9 3zm47 39v38h-23v-70h22v19h-3q3-10 10-15 6-6 16-6 7 0 13 4 5 3 8 9 3 6 3 15v44h-23v-39q0-7-3-10-3-3-8-3-4 0-7 1-2 2-4 5-1 3-1 8zm92 40q-11 0-19-5-8-5-13-13-4-8-4-19 0-11 4-19 5-8 13-13 8-5 18-5 8 0 15 3 6 3 11 7 5 5 7 12 3 6 3 14v7h-64v-14h53l-10 3q0-5-2-8-2-3-5-5-3-2-7-2-4 0-8 2-3 2-4 5-2 3-2 8v10q0 4 2 8 2 3 5 5 3 2 8 2 3 0 6-1 2-1 4-2 2-2 3-4h20q-1 7-6 12-5 5-12 9-7 3-16 3z"/><path transform="scale(0.25)" fill="#94a3b8"  d="m317 976v-29l-27-44h13l14 23q2 4 4 8 2 3 4 8h-4q2-5 4-8 2-4 4-8l13-23h13l-27 44v29zm71 1q-8 0-14-3-5-4-9-10-3-7-3-15 0-8 3-15 4-6 9-10 6-3 14-3 8 0 13 3 6 4 9 10 3 7 3 15 0 8-3 15-3 6-9 10-5 3-13 3zm0-9q5 0 8-3 3-2 5-7 1-4 1-9 0-5-1-10-2-4-5-7-3-2-8-2-5 0-8 2-4 3-5 7-2 5-2 10 0 5 2 9 1 5 5 7 3 3 8 3zm56 9q-6 0-10-3-4-2-6-7-3-4-3-11v-35h11v34q0 6 3 9 3 3 9 3 3 0 6-1 3-2 5-5 1-3 1-7v-33h11v55h-10v-13h1q-3 7-7 10-5 4-11 4zm41-1v-55h11v9q2-4 6-7 3-2 8-2 1 0 3 0 1 0 2 0v10q-1 0-2 0-2 0-4 0-4 0-7 1-3 2-4 4-2 3-2 7v33zm89 22q-7 0-11-2-5-2-8-4-3-3-5-6l9-5q1 2 3 4 2 1 4 3 3 1 8 1 6 0 10-3 4-3 4-9v-11h-1q-1 2-3 4-2 2-5 4-3 1-8 1-6 0-12-3-5-3-8-9-3-6-3-14 0-9 3-15 3-7 8-10 6-3 12-3 5 0 8 1 3 2 5 4 2 3 3 4h1v-9h10v56q0 7-3 12-3 4-9 6-5 3-12 3zm-1-32q5 0 8-2 3-2 5-6 2-4 2-10 0-5-2-9-2-4-5-7-3-2-8-2-4 0-7 2-4 3-5 7-2 4-2 9 0 6 2 10 1 4 5 6 3 2 7 2zm63 11q-8 0-14-3-6-4-9-10-3-6-3-15 0-8 3-15 3-6 9-10 6-3 13-3 5 0 9 1 5 2 8 5 4 3 6 9 2 5 2 12v4h-44v-8h38l-5 3q0-5-1-9-2-4-5-6-3-2-8-2-4 0-7 2-4 2-5 6-2 3-2 7v6q0 6 2 9 2 4 5 6 4 2 8 2 3 0 6-1 2 0 4-2 2-2 3-4l10 2q-1 4-5 7-3 4-7 5-5 2-11 2zm46-33v32h-11v-55h11v14h-1q2-8 7-11 4-3 11-3 5 0 9 2 4 2 7 7 2 5 2 11v35h-11v-33q0-6-3-10-3-3-8-3-4 0-7 2-2 1-4 4-2 3-2 8zm73 33q-8 0-14-3-6-4-9-10-3-7-3-15 0-8 3-15 3-6 9-10 6-3 14-3 7 0 13 3 6 4 9 10 3 7 3 15 0 8-3 15-3 6-9 10-6 3-13 3zm0-9q5 0 8-3 3-2 5-7 1-4 1-9 0-5-1-10-2-4-5-7-3-2-8-2-5 0-9 2-3 3-4 7-2 5-2 10 0 5 2 9 1 5 4 7 4 3 9 3zm37 8v-55h10l1 13h-1q1-5 3-8 3-3 6-4 3-2 7-2 6 0 9 4 4 4 5 10h-1q1-4 4-7 2-3 6-5 4-2 8-2 5 0 9 3 4 2 6 6 2 4 2 10v37h-10v-36q0-5-3-8-3-2-8-2-3 0-5 1-3 2-4 4-2 3-2 6v35h-10v-36q0-5-3-7-3-3-7-3-3 0-6 1-2 2-4 4-1 3-1 7v34zm112 1q-8 0-14-3-5-4-9-10-3-6-3-15 0-8 3-15 3-6 9-10 6-3 13-3 5 0 9 1 5 2 8 5 4 3 6 9 2 5 2 12v4h-44v-8h38l-5 3q0-5-1-9-2-4-5-6-3-2-8-2-4 0-7 2-4 2-5 6-2 3-2 7v6q0 6 2 9 2 4 5 6 4 2 8 2 3 0 6-1 2 0 4-2 2-2 3-4l10 2q-1 4-4 7-4 4-8 5-5 2-11 2zm34 17l5-28h11l-8 28zm74-17q-5 0-10-2-4-2-6-5-3-4-3-9 0-5 2-8 2-3 5-5 3-2 7-2 4-1 7-2 5 0 8-1 3 0 5-1 1-1 1-3 0-3-1-5-1-2-4-3-2-2-5-2-4 0-6 2-3 1-5 2-1 2-2 4l-10-3q2-5 5-8 4-3 8-4 5-1 9-1 4 0 8 1 3 0 7 2 3 2 5 6 2 4 2 10v36h-11v-7q-1 2-3 4-2 2-6 3-3 1-7 1zm2-8q5 0 8-2 3-2 5-5 1-3 1-6v-7q0 1-2 1-2 1-4 1-2 1-4 1-2 0-3 0-3 1-6 2-2 0-4 2-1 2-1 5 0 2 1 4 2 2 4 3 2 1 5 1zm50-25v32h-11v-55h11v14h-1q2-8 6-11 5-3 11-3 6 0 10 2 4 2 7 7 2 5 2 11v35h-11v-33q0-6-3-10-3-3-8-3-4 0-7 2-3 1-4 4-2 3-2 8zm65 33q-5 0-10-2-4-2-6-5-3-4-3-9 0-5 2-8 2-3 5-5 3-2 7-2 3-1 7-2 5 0 8-1 3 0 5-1 1-1 1-3 0-3-1-5-1-2-4-3-2-2-5-2-4 0-6 2-3 1-5 2-1 2-2 4l-10-3q2-5 5-8 4-3 8-4 5-1 9-1 4 0 7 1 4 0 7 2 4 2 6 6 2 4 2 10v36h-11v-7q-1 2-3 4-2 2-6 3-3 1-7 1zm2-8q5 0 8-2 3-2 4-5 2-3 2-6v-7q0 1-2 1-2 1-4 1-2 1-4 1-2 0-3 0-3 1-6 2-2 0-4 2-1 2-1 5 0 2 1 4 2 2 4 3 2 1 5 1zm50-66v73h-11v-73zm14 93l2-9h2q2 1 5 1 2-1 3-3 2-1 3-5l1-4-21-55h12l11 31q2 6 3 11 1 5 3 10h-4q2-5 3-10 1-5 3-11l11-31h12l-24 63q-2 4-4 7-3 3-6 4-3 2-8 2-2 0-4-1-2 0-3 0zm57-20v-7l29-38h-28v-10h42v8l-29 37v1h30v9zm80 1q-8 0-13-3-6-4-9-10-4-6-4-15 0-8 3-15 4-6 9-10 6-3 14-3 4 0 9 1 4 2 7 5 4 3 6 9 2 5 2 12v4h-44v-8h38l-5 3q0-5-1-9-2-4-5-6-3-2-7-2-5 0-8 2-3 2-5 6-2 3-2 7v6q0 6 2 9 2 4 5 6 4 2 9 2 3 0 5-1 2 0 4-2 2-2 3-4l10 2q-1 4-4 7-3 4-8 5-5 2-11 2zm56 0q-7 0-12-3-5-4-8-10-3-6-3-15 0-9 3-15 3-7 8-10 5-3 12-3 5 0 8 1 3 2 5 4 2 3 3 4v-27h11v73h-10v-9h-1q-1 2-3 4-2 3-5 4-3 2-8 2zm2-9q5 0 8-2 3-3 5-7 1-5 1-10 0-6-1-10-2-4-5-7-3-2-8-2-4 0-8 2-3 3-4 7-2 4-2 10 0 5 2 10 1 4 4 6 4 3 8 3zm89 9q-8 0-13-3-6-4-9-10-3-7-3-15 0-8 3-15 3-6 9-10 5-3 13-3 8 0 14 3 5 4 8 10 4 7 4 15 0 8-4 15-3 6-8 10-6 3-14 3zm0-9q5 0 8-3 4-2 5-7 2-4 2-9 0-5-2-10-1-4-5-7-3-2-8-2-5 0-8 2-3 3-5 7-1 5-1 10 0 5 1 9 2 5 5 7 3 3 8 3zm48-24v32h-10v-55h10v14h-1q2-8 7-11 4-3 11-3 5 0 9 2 5 2 7 7 2 5 2 11v35h-11v-33q0-6-3-10-3-3-8-3-4 0-7 2-2 1-4 4-2 3-2 8zm76 52l2-9h1q3 1 5 1 3-1 4-3 2-1 3-5l1-4-21-55h12l11 31q2 6 3 11 1 5 2 10h-3q1-5 3-10 1-5 3-11l11-31h11l-23 63q-2 4-4 7-3 3-6 4-3 2-8 2-2 0-4-1-2 0-3 0zm81-19q-8 0-14-3-5-4-9-10-3-7-3-15 0-8 3-15 4-6 9-10 6-3 14-3 8 0 13 3 6 4 9 10 3 7 3 15 0 8-3 15-3 6-9 10-5 3-13 3zm0-9q5 0 8-3 3-2 5-7 1-4 1-9 0-5-1-10-2-4-5-7-3-2-8-2-5 0-8 2-4 3-5 7-2 5-2 10 0 5 2 9 1 5 5 7 3 3 8 3zm56 9q-6 0-10-3-4-2-6-7-3-4-3-11v-35h11v34q0 6 3 9 3 3 9 3 3 0 6-1 3-2 5-5 1-3 1-7v-33h11v55h-10v-13h1q-3 7-7 10-5 4-11 4zm41-1v-55h11v9q2-4 6-7 3-2 8-2 1 0 3 0 1 0 2 0v10q-1 0-2 0-2 0-4 0-4 0-7 1-3 2-4 4-2 3-2 7v33zm89 1q-8 0-14-3-5-4-9-10-3-7-3-15 0-8 3-15 4-6 9-10 6-3 14-3 7 0 13 3 6 4 9 10 3 7 3 15 0 8-3 15-3 6-9 10-6 3-13 3zm0-9q5 0 8-3 3-2 5-7 1-4 1-9 0-5-1-10-2-4-5-7-3-2-8-2-5 0-8 2-4 3-5 7-2 5-2 10 0 5 2 9 1 5 5 7 3 3 8 3zm49 8l-16-55h11l6 23q1 5 3 11 1 7 3 14h-2q2-7 3-13 2-7 3-12l6-23h11l6 23q1 5 3 11 1 7 2 14h-1q1-7 3-13 1-7 3-12l6-23h11l-16 55h-11l-7-23q-1-4-2-8-1-4-2-8-1-4-2-8h2q0 4-1 8-1 4-2 8-1 4-2 8l-7 23zm82-32v32h-11v-55h10v14h-1q3-8 7-11 5-3 11-3 6 0 10 2 4 2 6 7 3 5 3 11v35h-11v-33q0-6-3-10-3-3-9-3-3 0-6 2-3 1-5 4-1 3-1 8zm87 0v32h-11v-73h11v32h-2q2-8 7-11 5-3 11-3 6 0 10 2 4 2 6 7 3 5 3 11v35h-11v-33q0-6-3-10-3-3-9-3-3 0-6 2-3 1-5 4-1 3-1 8zm64 33q-5 0-9-2-4-2-7-5-2-4-2-9 0-5 2-8 1-3 4-5 4-2 7-2 4-1 8-2 5 0 8-1 3 0 4-1 2-1 2-3 0-3-2-5-1-2-3-3-2-2-6-2-3 0-6 2-3 1-4 2-2 2-2 4l-11-3q2-5 6-8 3-3 8-4 4-1 9-1 3 0 7 1 4 0 7 2 3 2 5 6 2 4 2 10v36h-10v-7h-1q-1 2-3 4-2 2-5 3-3 1-8 1zm3-8q4 0 7-2 3-2 5-5 2-3 2-6v-7q-1 1-3 1-1 1-3 1-2 1-4 1-2 0-4 0-3 1-5 2-3 0-4 2-2 2-2 5 0 2 2 4 1 2 3 3 3 1 6 1zm39 7v-55h10v9h1q1-4 5-7 4-2 9-2 1 0 2 0 1 0 2 0v10q0 0-2 0-2 0-3 0-4 0-7 1-3 2-5 4-1 3-1 7v33zm59 1q-7 0-12-3-5-4-8-10-3-6-3-15 0-9 3-15 3-7 8-10 5-3 12-3 5 0 8 1 3 2 5 4 2 3 3 4v-27h11v73h-11v-9q-1 2-3 4-2 3-5 4-3 2-8 2zm2-9q5 0 8-2 3-3 5-7 1-5 1-10 0-6-1-10-2-4-5-7-3-2-8-2-5 0-8 2-3 3-4 7-2 4-2 10 0 5 2 10 1 4 4 6 3 3 8 3zm51 8l-16-55h11l6 23q2 5 3 11 2 7 3 14h-2q2-7 3-13 2-7 3-12l6-23h11l6 23q1 5 3 11 1 7 3 14h-2q1-7 3-13 1-7 3-12l6-23h11l-16 55h-11l-7-23q-1-4-2-8-1-4-2-8-1-4-2-8h3q-1 4-2 8-1 4-2 8-1 4-2 8l-7 23zm86 1q-5 0-9-2-4-2-7-5-2-4-2-9 0-5 2-8 2-3 5-5 3-2 6-2 4-1 8-2 5 0 8-1 3 0 4-1 2-1 2-3 0-3-1-5-2-2-4-3-2-2-6-2-3 0-6 2-2 1-4 2-2 2-2 4l-10-3q1-5 5-8 3-3 8-4 4-1 9-1 3 0 7 1 4 0 7 2 3 2 5 6 3 4 3 10v36h-11v-7q-1 2-4 4-2 2-5 3-3 1-8 1zm3-8q4 0 7-2 4-2 5-5 2-3 2-6v-7q-1 1-2 1-2 1-4 1-2 1-4 1-2 0-3 0-3 1-6 2-2 0-4 2-1 2-1 5 0 2 1 4 1 2 4 3 2 1 5 1zm39 7v-55h10v9h1q1-4 5-7 4-2 9-2 1 0 2 0 1 0 2 0v10q0 0-2 0-2 0-3 0-4 0-7 1-3 2-5 4-1 3-1 7v33zm62 1q-8 0-14-3-6-4-9-10-3-6-3-15 0-8 3-15 3-6 9-10 6-3 13-3 5 0 9 1 5 2 8 5 4 3 6 9 2 5 2 12v4h-44v-8h38l-5 3q0-5-1-9-2-4-5-6-3-2-8-2-4 0-7 2-4 2-5 6-2 3-2 7v6q0 6 2 9 2 4 5 6 4 2 8 2 3 0 6-1 2 0 4-2 2-2 3-4l10 2q-2 4-5 7-3 4-7 5-5 2-11 2z"/></g></svg>